<svg xmlns="http://www.w3.org/2000/svg" width="300" height="150" viewBox="0 0 300 150">
  <rect width="300" height="150" fill="white"/>

  <!-- EAN-13 バーコード: 4901991005011 -->
  <!-- スタートガード -->
  <rect x="20" y="20" width="2" height="80" fill="black"/>
  <rect x="24" y="20" width="2" height="80" fill="black"/>

  <!-- 左側データ (4901991) -->
  <rect x="28" y="20" width="2" height="80" fill="black"/>
  <rect x="34" y="20" width="2" height="80" fill="black"/>
  <rect x="38" y="20" width="4" height="80" fill="black"/>
  <rect x="46" y="20" width="2" height="80" fill="black"/>
  <rect x="50" y="20" width="2" height="80" fill="black"/>
  <rect x="56" y="20" width="2" height="80" fill="black"/>
  <rect x="62" y="20" width="2" height="80" fill="black"/>
  <rect x="66" y="20" width="4" height="80" fill="black"/>
  <rect x="72" y="20" width="2" height="80" fill="black"/>
  <rect x="78" y="20" width="2" height="80" fill="black"/>
  <rect x="84" y="20" width="2" height="80" fill="black"/>
  <rect x="88" y="20" width="4" height="80" fill="black"/>
  <rect x="94" y="20" width="2" height="80" fill="black"/>
  <rect x="100" y="20" width="2" height="80" fill="black"/>

  <!-- センターガード -->
  <rect x="106" y="20" width="2" height="80" fill="black"/>
  <rect x="110" y="20" width="2" height="80" fill="black"/>
  <rect x="114" y="20" width="2" height="80" fill="black"/>

  <!-- 右側データ (005011) -->
  <rect x="120" y="20" width="2" height="80" fill="black"/>
  <rect x="126" y="20" width="2" height="80" fill="black"/>
  <rect x="130" y="20" width="4" height="80" fill="black"/>
  <rect x="136" y="20" width="2" height="80" fill="black"/>
  <rect x="142" y="20" width="2" height="80" fill="black"/>
  <rect x="148" y="20" width="2" height="80" fill="black"/>
  <rect x="154" y="20" width="2" height="80" fill="black"/>
  <rect x="160" y="20" width="4" height="80" fill="black"/>
  <rect x="166" y="20" width="2" height="80" fill="black"/>
  <rect x="170" y="20" width="2" height="80" fill="black"/>
  <rect x="176" y="20" width="4" height="80" fill="black"/>
  <rect x="182" y="20" width="2" height="80" fill="black"/>
  <rect x="188" y="20" width="2" height="80" fill="black"/>

  <!-- エンドガード -->
  <rect x="194" y="20" width="2" height="80" fill="black"/>
  <rect x="198" y="20" width="2" height="80" fill="black"/>

  <!-- バーコード番号 -->
  <text x="110" y="115" font-family="monospace" font-size="14" text-anchor="middle">4901991005011</text>

  <!-- 商品名 -->
  <text x="110" y="135" font-family="sans-serif" font-size="16" text-anchor="middle" font-weight="bold">ホッチキス ¥800</text>
</svg>